FFmpeg version SVN-r25716, Copyright (c) 2000-2010 the FFmpeg developers  built on Nov 10 2010 12:23:18 with gcc 4.1.2 20080704 (Red Hat 4.1.2-48)  configuration: --enable-libmp3lame --enable-shared --disable-mmx --arch=x86_64  libavutil     50.33. 0 / 50.33. 0  libavcore      0.12. 1 /  0.12. 1  libavcodec    52.94. 4 / 52.94. 4  libavformat   52.84. 0 / 52.84. 0  libavdevice   52. 2. 2 / 52. 2. 2  libavfilter    1.59. 0 /  1.59. 0  libswscale     0.12. 0 /  0.12. 0[mov,mp4,m4a,3gp,3g2,mj2 @ 0x14d264c0] max_analyze_duration reachedInput #0, mov,mp4,m4a,3gp,3g2,mj2, from '/RAID10/data/converted_video_files/37407.mov':  Duration: 00:01:36.76, start: 0.000000, bitrate: 557 kb/s    Stream #0.0(eng): Video: smc, pal8, 320x240, 539 kb/s, 2.71 fps, 600 tbr, 600 tbn, 600 tbc    Stream #0.1(eng): Data: rtp  / 0x20707472, 17 kb/s[buffer @ 0x14dfd270] w:320 h:240 pixfmt:pal8[ffsink @ 0x14dfd4e0] auto-inserting filter 'auto-inserted scaler 0' between the filter 'src' and the filter 'out'[scale @ 0x14dfd800] w:320 h:240 fmt:pal8 -> w:320 h:240 fmt:yuv420p flags:0x4Output #0, flv, to '/RAID10/data/converted_video_files/37407.flv':  Metadata:    encoder         : Lavf52.84.0    Stream #0.0(eng): Video: flv, yuv420p, 320x240, q=2-31, 600 kb/s, 1k tbn, 24 tbcStream mapping:  Stream #0.0 -> #0.0Press [q] to stop encodingframe=   61 fps=  0 q=5.9 size=    1086kB time=22.33 bitrate= 398.3kbits/s    frame=  123 fps=110 q=5.4 size=    2156kB time=45.21 bitrate= 390.7kbits/s    frame=  181 fps=107 q=3.3 size=    3187kB time=66.58 bitrate= 392.1kbits/s    frame=  226 fps=102 q=3.1 size=    4023kB time=83.29 bitrate= 395.7kbits/s    frame=  262 fps=102 q=2.4 Lsize=    4167kB time=96.46 bitrate= 353.9kbits/s    video:4163kB audio:0kB global headers:0kB muxing overhead 0.103270%